<svg xmlns="http://www.w3.org/2000/svg" width="512" height="512" viewBox="0 0 512 512">
  <defs><linearGradient id="bg" x1="0" y1="0" x2="0" y2="1"><stop offset="0" stop-color="#f2f9f5"/><stop offset="1" stop-color="#e9f2fb"/></linearGradient></defs>
  <rect width="512" height="512" fill="url(#bg)"/>
  <svg x="44" y="58" width="424" height="424" viewBox="0 0 64 64">
  <path d="M32 28C25 24 16 24 9 27v18c7-3 16-3 23 1z" fill="rgba(30,168,90,0.10)" stroke="#1ea85a" stroke-width="2.4" stroke-linejoin="round" stroke-linecap="round"/>
  <path d="M32 28c7-4 16-4 23-1v18c-7-3-16-3-23 1z" fill="rgba(31,143,230,0.10)" stroke="#1573c4" stroke-width="2.4" stroke-linejoin="round" stroke-linecap="round"/>
  <path d="M32 28v18" stroke="#2a3b4a" stroke-width="2.2" stroke-linecap="round"/>
  <path d="M14 32.5h12M14 37h12" stroke="#1ea85a" stroke-width="1.4" stroke-linecap="round" opacity="0.5"/>
  <path d="M38 32.5h12M38 37h12" stroke="#1573c4" stroke-width="1.4" stroke-linecap="round" opacity="0.5"/>
  <path d="M47 9c.7 4.8 1.5 5.6 6.3 6.3-4.8.7-5.6 1.5-6.3 6.3-.7-4.8-1.5-5.6-6.3-6.3 4.8-.7 5.6-1.5 6.3-6.3z" fill="#c79a2b" stroke="#c79a2b" stroke-width="0.8" stroke-linejoin="round"/></svg>
</svg>