<svg xmlns="http://www.w3.org/2000/svg" width="512" height="512" viewBox="0 0 512 512">
  <rect width="512" height="512" fill="#ffffff"/>
  <g transform="translate(96,52) scale(5.0)">
  <path d="M32 6c.4 2.7.8 3.1 3.5 3.5-2.7.4-3.1.8-3.5 3.5-.4-2.7-.8-3.1-3.5-3.5 2.7-.4 3.1-.8 3.5-3.5z" fill="#b8901f" stroke="#b8901f" stroke-width="0.4"/>
  <path d="M32 24V48" fill="none" stroke="#b8901f" stroke-width="2" stroke-linecap="round"/>
  <path d="M32 24C25 20 17 19 10 21.5C12 29 12 39.5 10 45C17 42.5 25 43.5 32 48" fill="none" stroke="#b8901f" stroke-width="2" stroke-linecap="round" stroke-linejoin="round"/>
  <path d="M32 24C39 20 47 19 54 21.5C52 29 52 39.5 54 45C47 42.5 39 43.5 32 48" fill="none" stroke="#b8901f" stroke-width="2" stroke-linecap="round" stroke-linejoin="round"/></g>
  <text x="256" y="406" font-family="'Liberation Serif','Times New Roman',Georgia,serif" font-size="74" font-weight="700" letter-spacing="6" fill="#b8901f" text-anchor="middle">DABAR</text>
</svg>