<svg xmlns="http://www.w3.org/2000/svg" width="512" height="512" viewBox="0 0 512 512">
  <defs><linearGradient id="bg" x1="0" y1="0" x2="0" y2="1"><stop offset="0" stop-color="#f2f9f5"/><stop offset="1" stop-color="#e9f2fb"/></linearGradient></defs>
  <rect width="512" height="512" fill="url(#bg)"/>
  <svg x="56" y="64" width="400" height="400" viewBox="0 0 64 64">
  <path d="M32 6c.6 4 1.4 4.8 5.4 5.4-4 .6-4.8 1.4-5.4 5.4-.6-4-1.4-4.8-5.4-5.4 4-.6 4.8-1.4 5.4-5.4z" fill="#c79a2b" stroke="#c79a2b" stroke-width="0.6"/>
  <path d="M32 25.5V46" fill="none" stroke="#c79a2b" stroke-width="2.3" stroke-linecap="round"/>
  <path d="M32 25.5C25 20.5 17 21 10 24.5V43.5C17 40 25 40.5 32 45" fill="none" stroke="#1ea85a" stroke-width="2.3" stroke-linecap="round" stroke-linejoin="round"/>
  <path d="M32 25.5C39 20.5 47 21 54 24.5V43.5C47 40 39 40.5 32 45" fill="none" stroke="#1573c4" stroke-width="2.3" stroke-linecap="round" stroke-linejoin="round"/></svg>
</svg>