<svg xmlns="http://www.w3.org/2000/svg" width="512" height="512" viewBox="0 0 512 512">
  <defs><linearGradient id="bg" x1="0" y1="0" x2="0" y2="1"><stop offset="0" stop-color="#f4faf6"/><stop offset="1" stop-color="#eef4fb"/></linearGradient></defs>
  <rect width="512" height="512" fill="url(#bg)"/>
  <g transform="translate(42,85) scale(6.7)">
  <path d="M32 6c.45 3.7.95 4.2 4.7 4.7-3.75.5-4.25 1-4.7 4.7-.45-3.7-.95-4.2-4.7-4.7 3.75-.5 4.25-1 4.7-4.7z" fill="#b8901f" stroke="#b8901f" stroke-width="0.4"/>
  <path d="M32 27V45" fill="none" stroke="#b8901f" stroke-width="1.9" stroke-linecap="round"/>
  <path d="M32 27C25 24 17.5 22 11 21.5V41.5C17.5 42 25 42.5 32 45" fill="none" stroke="#178a50" stroke-width="1.9" stroke-linecap="round" stroke-linejoin="round"/>
  <path d="M32 27C39 24 46.5 22 53 21.5V41.5C46.5 42 39 42.5 32 45" fill="none" stroke="#15689c" stroke-width="1.9" stroke-linecap="round" stroke-linejoin="round"/></g>
</svg>