<svg xmlns="http://www.w3.org/2000/svg" width="512" height="512" viewBox="0 0 512 512">
  <defs><linearGradient id="bg" x1="0" y1="0" x2="0" y2="1"><stop offset="0" stop-color="#f4faf6"/><stop offset="1" stop-color="#eef4fb"/></linearGradient></defs>
  <rect width="512" height="512" fill="url(#bg)"/>
  <g transform="translate(33,75) scale(6.98)">
  <path d="M32 5c.45 3.8.95 4.3 4.8 4.8-3.85.5-4.35 1-4.8 4.8-.45-3.8-.95-4.3-4.8-4.8 3.85-.5 4.35-1 4.8-4.8z" fill="#b8901f" stroke="#b8901f" stroke-width="0.4"/>
  <path d="M32 25V49" fill="none" stroke="#b8901f" stroke-width="1.9" stroke-linecap="round"/>
  <path d="M32 25C25.5 22 19.5 20.5 15 20V46.5C19.5 46 25.5 46.5 32 49" fill="none" stroke="#178a50" stroke-width="1.9" stroke-linecap="round" stroke-linejoin="round"/>
  <path d="M32 25C38.5 22 44.5 20.5 49 20V46.5C44.5 46 38.5 46.5 32 49" fill="none" stroke="#15689c" stroke-width="1.9" stroke-linecap="round" stroke-linejoin="round"/></g>
</svg>