<svg xmlns="http://www.w3.org/2000/svg" width="512" height="512" viewBox="0 0 512 512" stroke-linecap="round" stroke-linejoin="round">
  <defs><linearGradient id="bg" x1="0" y1="0" x2="0" y2="1"><stop offset="0" stop-color="#f5faf7"/><stop offset="1" stop-color="#eff5fb"/></linearGradient></defs>
  <rect width="512" height="512" fill="url(#bg)"/>
  <path d="M256 96c2.6 17 5 19.4 22 22-17 2.6-19.4 5-22 22-2.6-17-5-19.4-22-22 17-2.6 19.4-5 22-22z" fill="#b8901f"/>
  <g transform="translate(96,82) scale(5.0)">
  <path d="M32 24V48" fill="none" stroke="#b8901f" stroke-width="2"/>
  <path d="M32 24C25 20 17 19 10 21.5C12 29 12 39.5 10 45C17 42.5 25 43.5 32 48" fill="none" stroke="#b8901f" stroke-width="2"/>
  <path d="M32 24C39 20 47 19 54 21.5C52 29 52 39.5 54 45C47 42.5 39 43.5 32 48" fill="none" stroke="#b8901f" stroke-width="2"/></g>
  <text x="256" y="408" font-family="'Liberation Serif','Times New Roman',Georgia,serif" font-size="74" font-weight="700" letter-spacing="6" fill="#b8901f" text-anchor="middle">DABAR</text>
</svg>