<svg xmlns="http://www.w3.org/2000/svg" width="512" height="512" viewBox="0 0 512 512">
  <defs><linearGradient id="bg" x1="0" y1="0" x2="0" y2="1"><stop offset="0" stop-color="#f2f9f5"/><stop offset="1" stop-color="#e9f2fb"/></linearGradient></defs>
  <rect width="512" height="512" fill="url(#bg)"/>
  <svg x="64" y="68" width="384" height="384" viewBox="0 0 64 64">
  <path d="M32 8c.5 3.6 1.3 4.4 4.9 4.9-3.6.5-4.4 1.3-4.9 4.9-.5-3.6-1.3-4.4-4.9-4.9 3.6-.5 4.4-1.3 4.9-4.9z" fill="#c79a2b" stroke="#c79a2b" stroke-width="0.5"/>
  <path d="M32 25V43" fill="none" stroke="#c79a2b" stroke-width="1.9" stroke-linecap="round"/>
  <path d="M32 25C25 23 18 23.5 13 25.5V42.5C18 40.5 25 41 32 43" fill="none" stroke="#1ea85a" stroke-width="1.9" stroke-linecap="round" stroke-linejoin="round"/>
  <path d="M32 25C39 23 46 23.5 51 25.5V42.5C46 40.5 39 41 32 43" fill="none" stroke="#1573c4" stroke-width="1.9" stroke-linecap="round" stroke-linejoin="round"/></svg>
</svg>