<svg xmlns="http://www.w3.org/2000/svg" width="512" height="512" viewBox="0 0 512 512" stroke-linecap="round" stroke-linejoin="round">
  <defs><linearGradient id="bg" x1="0" y1="0" x2="0" y2="1"><stop offset="0" stop-color="#f5faf7"/><stop offset="1" stop-color="#eff5fb"/></linearGradient></defs>
  <rect width="512" height="512" fill="url(#bg)"/>
  <g transform="translate(27.5,46) scale(7.14)">
  <path d="M32 6c.4 2.7.8 3.1 3.5 3.5-2.7.4-3.1.8-3.5 3.5-.4-2.7-.8-3.1-3.5-3.5 2.7-.4 3.1-.8 3.5-3.5z" fill="#b8901f" stroke="#b8901f" stroke-width="0.4"/>
  <path d="M32 24V49" fill="none" stroke="#b8901f" stroke-width="1.9"/>
  <path d="M32 24C25.5 21 19.5 19.5 15 19V46.5C19.5 46 25.5 46.5 32 49" fill="none" stroke="#b8901f" stroke-width="1.9"/>
  <path d="M32 24C38.5 21 44.5 19.5 49 19V46.5C44.5 46 38.5 46.5 32 49" fill="none" stroke="#b8901f" stroke-width="1.9"/></g>
</svg>